0
SECTION
2
HEADER
9
$INSUNITS
70
4
9
$ACADVER
1
AC1014
9
$HANDSEED
5
FFFF
0
ENDSEC
0
SECTION
2
TABLES
0
TABLE
2
VPORT
5
8
100
AcDbSymbolTable
0
ENDTAB
0
TABLE
2
LTYPE
5
5
100
AcDbSymbolTable
0
LTYPE
5
14
100
AcDbSymbolTableRecord
100
AcDbLinetypeTableRecord
2
BYBLOCK
70
0
0
LTYPE
5
15
100
AcDbSymbolTableRecord
100
AcDbLinetypeTableRecord
2
BYLAYER
70
0
0
ENDTAB
0
TABLE
2
LAYER
5
2
100
AcDbSymbolTable
70
2
0
LAYER
5
50
100
AcDbSymbolTableRecord
100
AcDbLayerTableRecord
2
0
70
0
6
CONTINUOUS
0
ENDTAB
0
TABLE
2
STYLE
5
3
100
AcDbSymbolTable
70
1
0
STYLE
5
11
100
AcDbSymbolTableRecord
100
AcDbTextStyleTableRecord
2
STANDARD
70
0
0
ENDTAB
0
TABLE
2
VIEW
5
6
100
AcDbSymbolTable
70
0
0
ENDTAB
0
TABLE
2
UCS
5
7
100
AcDbSymbolTable
70
0
0
ENDTAB
0
TABLE
2
APPID
5
9
100
AcDbSymbolTable
70
2
0
APPID
5
12
100
AcDbSymbolTableRecord
100
AcDbRegAppTableRecord
2
ACAD
70
0
0
ENDTAB
0
TABLE
2
DIMSTYLE
5
A
100
AcDbSymbolTable
70
1
0
ENDTAB
0
TABLE
2
BLOCK_RECORD
5
1
100
AcDbSymbolTable
70
1
0
BLOCK_RECORD
5
1F
100
AcDbSymbolTableRecord
100
AcDbBlockTableRecord
2
*MODEL_SPACE
0
BLOCK_RECORD
5
1B
100
AcDbSymbolTableRecord
100
AcDbBlockTableRecord
2
*PAPER_SPACE
0
ENDTAB
0
ENDSEC
0
SECTION
2
BLOCKS
0
BLOCK
5
20
100
AcDbEntity
100
AcDbBlockBegin
2
*MODEL_SPACE
0
ENDBLK
5
21
100
AcDbEntity
100
AcDbBlockEnd
0
BLOCK
5
1C
100
AcDbEntity
100
AcDbBlockBegin
2
*PAPER_SPACE
0
ENDBLK
5
1D
100
AcDbEntity
100
AcDbBlockEnd
0
ENDSEC
0
SECTION
2
ENTITIES
0
CIRCLE
5
100
100
AcDbEntity
8
0
100
AcDbCircle
10
-180.59999542236469
20
-35.074999427789287
30
0
40
1.5875000000000126
210
-1.6480881191107136e-58
220
-1.2621774483536192e-29
230
1
0
CIRCLE
5
101
100
AcDbEntity
8
0
100
AcDbCircle
10
-356.59999542236454
20
-101.07499942778929
30
0
40
1.5874999999999773
210
-9.1259555704396675e-58
220
1.4307761696184034e-101
230
1
0
CIRCLE
5
102
100
AcDbEntity
8
0
100
AcDbCircle
10
-396.5999954223646
20
-68.074999427789294
30
0
40
1.5874999999999773
210
5.8297793322164158e-58
220
5.8387412627835873e-102
230
1
0
CIRCLE
5
103
100
AcDbEntity
8
0
100
AcDbCircle
10
-276.5999954223646
20
-101.07499942778929
30
0
40
1.5875000000000126
210
-9.1259555704388822e-58
220
-1.2621774483536192e-29
230
1
0
CIRCLE
5
104
100
AcDbEntity
8
0
100
AcDbCircle
10
-180.59999542236466
20
-101.07499942778929
30
0
40
1.5875000000000126
210
-9.1259555704388822e-58
220
-1.2621774483536192e-29
230
1
0
CIRCLE
5
105
100
AcDbEntity
8
0
100
AcDbCircle
10
-100.5999954223647
20
-35.074999427789287
30
0
40
1.587499999999995
210
-1.6480881191113156e-58
220
4.6663343686022381e-103
230
1
0
CIRCLE
5
106
100
AcDbEntity
8
0
100
AcDbCircle
10
-276.5999954223646
20
-35.07499942778928
30
0
40
1.5875000000000126
210
-1.6480881191107136e-58
220
-1.2621774483536192e-29
230
1
0
CIRCLE
5
107
100
AcDbEntity
8
0
100
AcDbCircle
10
-356.5999954223646
20
-35.07499942778928
30
0
40
1.5874999999999773
210
-1.648088119111918e-58
220
4.666334368606044e-103
230
1
0
CIRCLE
5
108
100
AcDbEntity
8
0
100
AcDbCircle
10
-60.599995422364678
20
-68.074999427789294
30
0
40
1.5875000000000039
210
5.8297793322163182e-58
220
5.8387412627834897e-102
230
1
0
CIRCLE
5
109
100
AcDbEntity
8
0
100
AcDbCircle
10
-100.59999542236469
20
-101.07499942778929
30
0
40
1.587499999999995
210
-9.1259555704395656e-58
220
1.4307761696183875e-101
230
1
0
CIRCLE
5
110
100
AcDbEntity
8
0
100
AcDbCircle
10
-15.000012207028725
20
113.59999999999852
30
0
40
3.5000000000000009
210
-1.6480881191111805e-58
220
4.6663343686029053e-103
230
1
0
CIRCLE
5
111
100
AcDbEntity
8
0
100
AcDbCircle
10
-199.00199999999987
20
-114.99999999994307
30
0
40
3.5000000000000142
210
6.1306807814210747e-46
220
-6.5461560940557003e-63
230
1
0
CIRCLE
5
112
100
AcDbEntity
8
0
100
AcDbCircle
10
-34.744528135532562
20
-8.0749994277959303
30
0
40
2.5
210
-4.5687950969157234e-60
220
3.5860666755650385e-106
230
1
0
CIRCLE
5
113
100
AcDbEntity
8
0
100
AcDbCircle
10
-34.744528135532562
20
284.03360000000725
30
0
40
2.7499999999999858
210
-3.4764358260705364e-57
220
2.0762681008959419e-100
230
1
0
CIRCLE
5
114
100
AcDbEntity
8
0
100
AcDbCircle
10
-421.94452813553227
20
-8.0749994277959303
30
0
40
2.5
210
-4.5687950969157234e-60
220
3.5860666755650385e-106
230
1
0
CIRCLE
5
115
100
AcDbEntity
8
0
100
AcDbCircle
10
-421.94452813553227
20
284.03360000000725
30
0
40
2.7499999999999858
210
-3.4764358260705364e-57
220
2.0762681008959419e-100
230
1
0
LWPOLYLINE
5
116
100
AcDbEntity
8
0
100
AcDbPolyline
90
8
70
1
43
0.0
10
-68.599995422364657
20
-87.074999427795944
10
-68.599995422364657
20
-49.074999427795952
42
0.41421356237309503
10
-74.599995422364671
20
-43.074999427795944
10
-382.59999542236466
20
-43.074999427795959
42
0.41421356237309548
10
-388.59999542236466
20
-49.074999427795959
10
-388.59999542236466
20
-87.074999427795944
42
0.41421356237309503
10
-382.59999542236466
20
-93.074999427795944
10
-74.599995422364657
20
-93.074999427795944
42
0.41421356237309503
0
CIRCLE
5
117
100
AcDbEntity
8
0
100
AcDbCircle
10
-378.60000610351528
20
272.01680000000647
30
0
40
20
210
2.0785514234872222e-57
220
7.4222665170366652e-101
230
1
0
LWPOLYLINE
5
118
100
AcDbEntity
8
0
100
AcDbPolyline
90
8
70
1
43
0.0
10
-90.000012207029201
20
-160.00000000002186
10
-35.000012207029201
20
-160.00000000002186
42
0.41421356237309609
10
-30.000012207029201
20
-155.00000000002186
10
-30.000012207029201
20
-125.00000000002187
42
0.41421356237309398
10
-35.000012207029201
20
-120.00000000002188
10
-90.000012207029201
20
-120.0000000000219
42
0.41421356237309503
10
-95.000012207029201
20
-125.0000000000219
10
-95.000012207029201
20
-155.00000000002188
42
0.41421356237309503
0
CIRCLE
5
119
100
AcDbEntity
8
0
100
AcDbCircle
10
-447.20000000000135
20
-27.98319999999422
30
0
40
5.0800000000000267
210
-1.6480881191113747e-58
220
4.6663343686034555e-103
230
1
0
CIRCLE
5
120
100
AcDbEntity
8
0
100
AcDbCircle
10
-70.000012207028064
20
-168.99159999999353
30
0
40
3.2000000000000028
210
-1.1210387714596458e-44
220
-4.0030996797497067e-88
230
1
0
CIRCLE
5
121
100
AcDbEntity
8
0
100
AcDbCircle
10
-10.000012207028064
20
172.01680000000579
30
0
40
5.0800000000000001
210
-1.1210387714596458e-44
220
-4.0030996797497782e-88
230
1
0
CIRCLE
5
122
100
AcDbEntity
8
0
100
AcDbCircle
10
-387.20000000000135
20
313.02520000000652
30
0
40
3.2000000000000028
210
-1.1210387714596458e-44
220
-4.0030996797497067e-88
230
1
0
CIRCLE
5
123
100
AcDbEntity
8
0
100
AcDbCircle
10
-228.60000610351472
20
313.02520000000652
30
0
40
3.2000000000000028
210
-1.1210387714596458e-44
220
-4.0030996797497067e-88
230
1
0
CIRCLE
5
124
100
AcDbEntity
8
0
100
AcDbCircle
10
-10.000012207028064
20
72.016800000006498
30
0
40
5.0800000000000001
210
-1.1210387714598701e-44
220
3.1740667790382259e-89
230
1
0
CIRCLE
5
125
100
AcDbEntity
8
0
100
AcDbCircle
10
-228.60000610351472
20
-168.99159999999353
30
0
40
3.2000000000000028
210
-1.1210387714596458e-44
220
-4.0030996797497067e-88
230
1
0
CIRCLE
5
126
100
AcDbEntity
8
0
100
AcDbCircle
10
-447.20000000000135
20
72.016800000006498
30
0
40
5.0800000000000267
210
-1.6480881191113747e-58
220
4.6663343686034555e-103
230
1
0
CIRCLE
5
127
100
AcDbEntity
8
0
100
AcDbCircle
10
-447.20000000000135
20
-127.98319999999427
30
0
40
5.0800000000000267
210
-1.6480881191113747e-58
220
4.6663343686034555e-103
230
1
0
CIRCLE
5
128
100
AcDbEntity
8
0
100
AcDbCircle
10
-10.000012207028064
20
-127.98319999999427
30
0
40
5.0800000000000001
210
-1.1210387714598701e-44
220
3.1740667790382259e-89
230
1
0
CIRCLE
5
129
100
AcDbEntity
8
0
100
AcDbCircle
10
-10.000012207028064
20
272.01680000000579
30
0
40
5.0800000000000001
210
-1.1210387714596458e-44
220
-4.0030996797497782e-88
230
1
0
CIRCLE
5
130
100
AcDbEntity
8
0
100
AcDbCircle
10
-447.20000000000135
20
272.01680000000579
30
0
40
5.0800000000000267
210
2.0785514234871947e-57
220
7.4222665170365674e-101
230
1
0
CIRCLE
5
131
100
AcDbEntity
8
0
100
AcDbCircle
10
-70.000012207028064
20
313.02520000000652
30
0
40
3.2000000000000028
210
-1.1210387714596458e-44
220
-4.0030996797497067e-88
230
1
0
CIRCLE
5
132
100
AcDbEntity
8
0
100
AcDbCircle
10
-10.000012207028064
20
-27.98319999999422
30
0
40
5.0800000000000001
210
-1.1210387714598701e-44
220
3.1740667790382259e-89
230
1
0
CIRCLE
5
133
100
AcDbEntity
8
0
100
AcDbCircle
10
-387.20000000000135
20
-168.99159999999353
30
0
40
3.2000000000000028
210
-1.1210387714596458e-44
220
-4.0030996797497067e-88
230
1
0
CIRCLE
5
134
100
AcDbEntity
8
0
100
AcDbCircle
10
-447.20000000000135
20
172.01680000000579
30
0
40
5.0800000000000267
210
2.0785514234871947e-57
220
7.4222665170365674e-101
230
1
0
CIRCLE
5
135
100
AcDbEntity
8
0
100
AcDbCircle
10
-228.50199999999998
20
-124.99999999994017
30
0
40
11.999999999999993
210
-1.4327950319189863e-57
220
3.5268186758620566e-101
230
1
0
CIRCLE
5
136
100
AcDbEntity
8
0
100
AcDbCircle
10
-213.00200000000015
20
-140.49999999994293
30
0
40
1.7500000000000071
210
-6.7075356540300402e-45
220
7.7833933347322843e-69
230
1
0
CIRCLE
5
137
100
AcDbEntity
8
0
100
AcDbCircle
10
-141.20199542236432
20
-127.2999999999429
30
0
40
2.7499999999999858
210
-6.7075356540300402e-45
220
7.7833933347322843e-69
230
1
0
CIRCLE
5
138
100
AcDbEntity
8
0
100
AcDbCircle
10
-213.00200000000015
20
-109.49999999994296
30
0
40
1.7500000000000071
210
-6.7075356540300402e-45
220
7.7833933347322843e-69
230
1
0
CIRCLE
5
139
100
AcDbEntity
8
0
100
AcDbCircle
10
-244.00200000000012
20
-140.49999999994293
30
0
40
1.7500000000000071
210
-6.7075356540300402e-45
220
7.7833933347322843e-69
230
1
0
CIRCLE
5
140
100
AcDbEntity
8
0
100
AcDbCircle
10
-244.00200000000012
20
-109.49999999994296
30
0
40
1.7500000000000071
210
-6.7075356540300402e-45
220
7.7833933347322843e-69
230
1
0
CIRCLE
5
141
100
AcDbEntity
8
0
100
AcDbCircle
10
-178.50200000000029
20
-126.90601569774792
30
0
40
2.7499999999999858
210
-6.7075356540300402e-45
220
7.7833933347322843e-69
230
1
0
CIRCLE
5
142
100
AcDbEntity
8
0
100
AcDbCircle
10
-278.50200000000024
20
-126.90601569775944
30
0
40
2.7499999999999858
210
-6.7075356540300402e-45
220
7.7833933347322843e-69
230
1
0
CIRCLE
5
143
100
AcDbEntity
8
0
100
AcDbCircle
10
-315.80200457763618
20
-127.29999999994293
30
0
40
2.7499999999999858
210
-6.7075356540300402e-45
220
7.7833933347322843e-69
230
1
0
LWPOLYLINE
5
144
100
AcDbEntity
8
0
100
AcDbPolyline
90
4
70
1
43
0.0
10
-462.20000000000135
20
-177.9831999999935
10
-462.20000000000135
20
322.01680000000647
10
4.9999877929707992
20
322.01680000000647
10
4.9999877929719361
20
-177.9831999999935
0
ENDSEC
0
SECTION
2
OBJECTS
0
DICTIONARY
5
C
100
AcDbDictionary
3
ACAD_GROUP
350
D
3
ACAD_MLINESTYLE
350
17
0
DICTIONARY
5
D
100
AcDbDictionary
0
DICTIONARY
5
1A
330
C
100
AcDbDictionary
0
DICTIONARY
5
17
100
AcDbDictionary
0
ENDSEC
0
EOF
