0
SECTION
2
HEADER
9
$INSUNITS
70
4
9
$ACADVER
1
AC1014
9
$HANDSEED
5
FFFF
0
ENDSEC
0
SECTION
2
TABLES
0
TABLE
2
VPORT
5
8
100
AcDbSymbolTable
0
ENDTAB
0
TABLE
2
LTYPE
5
5
100
AcDbSymbolTable
0
LTYPE
5
14
100
AcDbSymbolTableRecord
100
AcDbLinetypeTableRecord
2
BYBLOCK
70
0
0
LTYPE
5
15
100
AcDbSymbolTableRecord
100
AcDbLinetypeTableRecord
2
BYLAYER
70
0
0
ENDTAB
0
TABLE
2
LAYER
5
2
100
AcDbSymbolTable
70
2
0
LAYER
5
50
100
AcDbSymbolTableRecord
100
AcDbLayerTableRecord
2
0
70
0
6
CONTINUOUS
0
ENDTAB
0
TABLE
2
STYLE
5
3
100
AcDbSymbolTable
70
1
0
STYLE
5
11
100
AcDbSymbolTableRecord
100
AcDbTextStyleTableRecord
2
STANDARD
70
0
0
ENDTAB
0
TABLE
2
VIEW
5
6
100
AcDbSymbolTable
70
0
0
ENDTAB
0
TABLE
2
UCS
5
7
100
AcDbSymbolTable
70
0
0
ENDTAB
0
TABLE
2
APPID
5
9
100
AcDbSymbolTable
70
2
0
APPID
5
12
100
AcDbSymbolTableRecord
100
AcDbRegAppTableRecord
2
ACAD
70
0
0
ENDTAB
0
TABLE
2
DIMSTYLE
5
A
100
AcDbSymbolTable
70
1
0
ENDTAB
0
TABLE
2
BLOCK_RECORD
5
1
100
AcDbSymbolTable
70
1
0
BLOCK_RECORD
5
1F
100
AcDbSymbolTableRecord
100
AcDbBlockTableRecord
2
*MODEL_SPACE
0
BLOCK_RECORD
5
1B
100
AcDbSymbolTableRecord
100
AcDbBlockTableRecord
2
*PAPER_SPACE
0
ENDTAB
0
ENDSEC
0
SECTION
2
BLOCKS
0
BLOCK
5
20
100
AcDbEntity
100
AcDbBlockBegin
2
*MODEL_SPACE
0
ENDBLK
5
21
100
AcDbEntity
100
AcDbBlockEnd
0
BLOCK
5
1C
100
AcDbEntity
100
AcDbBlockBegin
2
*PAPER_SPACE
0
ENDBLK
5
1D
100
AcDbEntity
100
AcDbBlockEnd
0
ENDSEC
0
SECTION
2
ENTITIES
0
LWPOLYLINE
5
100
100
AcDbEntity
8
0
100
AcDbPolyline
90
4
70
1
43
0.0
10
-44.583203051769225
20
247.01679999999988
10
55.416796948230775
20
247.01679999999988
42
0.99999999999999989
10
55.416796948230775
20
282.01679999999988
10
-44.583203051769225
20
282.01679999999988
42
0.99999999999999989
0
CIRCLE
5
101
100
AcDbEntity
8
0
100
AcDbCircle
10
-105.59160305176923
20
272.01679999999982
30
0
40
3.2000000000000028
210
-1.7516230804060213e-46
220
1.2241634459411566e-108
230
1
0
CIRCLE
5
102
100
AcDbEntity
8
0
100
AcDbCircle
10
-105.59160305176918
20
-127.98320000000021
30
0
40
3.2000000000000028
210
-1.7516230804060213e-46
220
1.2241634459411566e-108
230
1
0
CIRCLE
5
103
100
AcDbEntity
8
0
100
AcDbCircle
10
239.81660014168864
20
-168.99160000000023
30
0
40
3.2000000000000028
210
-1.7516230804060213e-46
220
1.2241634459411566e-108
230
1
0
CIRCLE
5
104
100
AcDbEntity
8
0
100
AcDbCircle
10
382.29160133514642
20
-112.98320000000018
30
0
40
3.2000000000000028
210
-1.7516230804060213e-46
220
1.2241634459411566e-108
230
1
0
CIRCLE
5
105
100
AcDbEntity
8
0
100
AcDbCircle
10
138.34999914168864
20
-168.99160000000023
30
0
40
3.2000000000000028
210
-1.7516230804060213e-46
220
1.2241634459411566e-108
230
1
0
CIRCLE
5
106
100
AcDbEntity
8
0
100
AcDbCircle
10
-105.5916030517692
20
-27.983200000000181
30
0
40
3.2000000000000028
210
-1.7516230804060213e-46
220
1.2241634459411566e-108
230
1
0
CIRCLE
5
107
100
AcDbEntity
8
0
100
AcDbCircle
10
73.399996948219808
20
313.02519999999981
30
0
40
3.2000000000000028
210
-1.7516230804060213e-46
220
1.2241634459411566e-108
230
1
0
CIRCLE
5
108
100
AcDbEntity
8
0
100
AcDbCircle
10
-105.59160305176923
20
172.01679999999982
30
0
40
3.2000000000000028
210
-1.7516230804060213e-46
220
1.2241634459411566e-108
230
1
0
CIRCLE
5
109
100
AcDbEntity
8
0
100
AcDbCircle
10
-64.583203051769189
20
-168.99160000000023
30
0
40
3.2000000000000028
210
-1.7516230804060213e-46
220
1.2241634459411566e-108
230
1
0
CIRCLE
5
110
100
AcDbEntity
8
0
100
AcDbCircle
10
341.28320133514649
20
-168.9916000000002
30
0
40
3.2000000000000028
210
-1.7516230804060213e-46
220
1.2241634459411566e-108
230
1
0
CIRCLE
5
111
100
AcDbEntity
8
0
100
AcDbCircle
10
382.29160133514648
20
-157.98320000000018
30
0
40
3.2000000000000028
210
-1.7516230804060213e-46
220
1.2241634459411566e-108
230
1
0
CIRCLE
5
112
100
AcDbEntity
8
0
100
AcDbCircle
10
36.883398141688645
20
-168.99160000000023
30
0
40
3.2000000000000028
210
-1.7516230804060213e-46
220
1.2241634459411566e-108
230
1
0
CIRCLE
5
113
100
AcDbEntity
8
0
100
AcDbCircle
10
-105.5916030517692
20
72.016799999999819
30
0
40
3.2000000000000028
210
-1.7516230804060213e-46
220
1.2241634459411566e-108
230
1
0
CIRCLE
5
114
100
AcDbEntity
8
0
100
AcDbCircle
10
-64.583203051769232
20
313.02519999999987
30
0
40
3.2000000000000028
210
-1.7516230804060213e-46
220
1.2241634459411566e-108
230
1
0
LWPOLYLINE
5
115
100
AcDbEntity
8
0
100
AcDbPolyline
90
5
70
1
43
0.0
10
143.39999694821984
20
322.01679999999982
10
391.28320133514643
20
-73.074999427795916
10
391.28320133514637
20
-177.98320000000018
10
-114.58320305176923
20
-177.98320000000018
10
-114.58320305176923
20
322.01679999999982
0
CIRCLE
5
116
100
AcDbEntity
8
0
100
AcDbCircle
10
9.0500000000000007
20
20.79999999999999
30
0
40
3.2000000000000006
210
-1.7516230804060213e-46
220
-1.8909140209225187e-124
230
1
0
CIRCLE
5
117
100
AcDbEntity
8
0
100
AcDbCircle
10
-15.999997673154676
20
43.276000000000003
30
0
40
2.5
210
-1.7396408877930807e-122
220
0
230
1
0
CIRCLE
5
118
100
AcDbEntity
8
0
100
AcDbCircle
10
-15.999997673154676
20
86.552000000000007
30
0
40
2.5
210
-1.7396408877930807e-122
220
0
230
1
0
CIRCLE
5
119
100
AcDbEntity
8
0
100
AcDbCircle
10
34.100002326845342
20
43.276000000000003
30
0
40
2.5
210
-1.7396408877930807e-122
220
0
230
1
0
CIRCLE
5
120
100
AcDbEntity
8
0
100
AcDbCircle
10
34.100000000000001
20
-2.6015457679901703e-31
30
0
40
2.5
210
-1.7396408877930807e-122
220
0
230
1
0
CIRCLE
5
121
100
AcDbEntity
8
0
100
AcDbCircle
10
34.100000000000001
20
86.552000000000007
30
0
40
2.5
210
-1.7396408877930807e-122
220
0
230
1
0
CIRCLE
5
122
100
AcDbEntity
8
0
100
AcDbCircle
10
-15.999997673154676
20
-2.6015457679882085e-31
30
0
40
2.5
210
-1.7396408877930807e-122
220
0
230
1
0
CIRCLE
5
123
100
AcDbEntity
8
0
100
AcDbCircle
10
9.0500000000000043
20
80.799999999999997
30
0
40
3.2000000000000006
210
-1.7516230804060213e-46
220
-1.8909140209225187e-124
230
1
0
ENDSEC
0
SECTION
2
OBJECTS
0
DICTIONARY
5
C
100
AcDbDictionary
3
ACAD_GROUP
350
D
3
ACAD_MLINESTYLE
350
17
0
DICTIONARY
5
D
100
AcDbDictionary
0
DICTIONARY
5
1A
330
C
100
AcDbDictionary
0
DICTIONARY
5
17
100
AcDbDictionary
0
ENDSEC
0
EOF
