<?xml version="1.0" encoding="UTF-8" standalone="no"?>
<svg
   xmlns:dc="http://purl.org/dc/elements/1.1/"
   xmlns:cc="http://creativecommons.org/ns#"
   xmlns:rdf="http://www.w3.org/1999/02/22-rdf-syntax-ns#"
   xmlns:svg="http://www.w3.org/2000/svg"
   xmlns="http://www.w3.org/2000/svg"
   xmlns:sodipodi="http://sodipodi.sourceforge.net/DTD/sodipodi-0.dtd"
   xmlns:inkscape="http://www.inkscape.org/namespaces/inkscape"
   version="1.1"
   id="svg10"
   xml:space="preserve"
   width="1090.4381"
   height="1028.3806"
   viewBox="0 0 1090.4381 1028.3806"
   sodipodi:docname="cr8-docs-logo.svg"
   inkscape:version="1.0.1 (3bc2e813f5, 2020-09-07)"><metadata
     id="metadata16"><rdf:RDF><cc:Work
         rdf:about=""><dc:format>image/svg+xml</dc:format><dc:type
           rdf:resource="http://purl.org/dc/dcmitype/StillImage" /><dc:title></dc:title></cc:Work></rdf:RDF></metadata><defs
     id="defs14"><clipPath
       clipPathUnits="userSpaceOnUse"
       id="clipPath26"><path
         d="M 0,768 H 816.329 V 0 H 0 Z"
         id="path24" /></clipPath></defs><sodipodi:namedview
     pagecolor="#ffffff"
     bordercolor="#666666"
     borderopacity="1"
     objecttolerance="10"
     gridtolerance="10"
     guidetolerance="10"
     inkscape:pageopacity="0"
     inkscape:pageshadow="2"
     inkscape:window-width="1920"
     inkscape:window-height="1055"
     id="namedview12"
     showgrid="false"
     inkscape:zoom="0.6767922"
     inkscape:cx="530.21501"
     inkscape:cy="490.46449"
     inkscape:window-x="-8"
     inkscape:window-y="-8"
     inkscape:window-maximized="1"
     inkscape:current-layer="g360"
     fit-margin-top="0"
     fit-margin-left="0"
     fit-margin-right="0"
     fit-margin-bottom="0" /><g
     id="g18"
     inkscape:groupmode="layer"
     inkscape:label="basement-fresh"
     transform="matrix(1.3333333,0,0,-1.3333333,1.4775781,1024.0001)"><g
       id="g20"><g
         id="g22"
         clip-path="url(#clipPath26)"><g
           id="g360"><g
             id="g1534"><rect
               style="fill:#ed1c24;fill-opacity:1;stroke-width:0.74348"
               id="rect364"
               width="817.82861"
               height="771.28546"
               x="-1.1081836"
               y="-768.00006"
               transform="scale(1,-1)" /><g
               id="g28"
               transform="translate(545.41057,693.21688)"
               style="fill:#ffffff"><path
                 d="m 0,0 c 0,0 31.754,0 31.754,20.838 0,20.839 -30.762,36.716 -42.67,36.716 -11.908,0 -14.885,-9.923 -14.885,-28.777 C -25.801,9.923 -15.878,0 0,0"
                 style="fill:#ffffff;fill-opacity:1;fill-rule:nonzero;stroke:none"
                 id="path30" /></g><g
               id="g32"
               transform="translate(713.11177,88.895579)"
               style="fill:#ffffff"><path
                 d="m 0,0 c 0,0 3.969,-30.762 21.831,-30.762 17.861,0 23.815,11.908 23.815,23.816 0,11.908 -17.861,21.831 -30.761,21.831 C 1.984,14.885 0,6.946 0,0"
                 style="fill:#ffffff;fill-opacity:1;fill-rule:nonzero;stroke:none"
                 id="path34" /></g><g
               id="g36"
               transform="translate(245.73037,32.333979)"
               style="fill:#ffffff"><path
                 d="m 0,0 c 0,0 3.969,-22.823 17.862,-22.823 13.892,0 32.746,12.899 32.746,37.708 0,24.807 -13.892,21.83 -18.854,21.83 C 26.792,36.715 0,32.746 0,0"
                 style="fill:#ffffff;fill-opacity:1;fill-rule:nonzero;stroke:none"
                 id="path38" /></g><g
               id="g40"
               transform="translate(10.551176,225.83498)"
               style="fill:#ffffff"><path
                 d="m 0,0 c 0,0 2.977,-24.808 20.839,-24.808 17.862,0 44.654,30.762 44.654,41.678 0,10.915 -5.954,12.9 -18.854,12.9 C 33.739,29.77 0,20.839 0,0"
                 style="fill:#ffffff;fill-opacity:1;fill-rule:nonzero;stroke:none"
                 id="path42" /></g><g
               id="g44"
               transform="translate(395.44138,137.64748)"
               style="fill:#ffffff"><path
                 d="m 0,0 c -99.272,0 -184.911,58.319 -224.564,142.558 24.522,-2.383 141.518,-12.565 219.406,1.696 87.391,16.002 202.065,13.943 231.884,7.588 0.639,-0.137 1.244,-0.218 1.861,-0.318 C 190.929,62.48 102.761,0 0,0 m 0,496.159 c 98.185,0 183.042,-57.044 223.252,-139.795 -35.207,6.09 -146.656,5.951 -228.41,-9.018 -82.688,-15.14 -209.432,-2.733 -222.836,-1.354 C -190.015,434.31 -102.235,496.159 0,496.159 M 340.494,192.381 c -22.824,1.985 -81.37,3.97 -81.37,42.67 0,38.7 13.892,55.57 35.723,63.508 21.831,7.939 33.738,26.793 35.724,40.685 1.984,13.893 -5.954,35.723 -22.823,38.7 -16.871,2.977 -53.586,6.947 -60.533,31.755 -6.946,24.807 10.916,38.7 19.847,50.608 8.931,11.907 19.847,51.6 -4.962,66.485 -24.808,14.885 -51.6,23.815 -69.462,-2.977 -17.861,-26.793 -27.785,-58.547 -52.593,-51.601 -24.807,6.947 -29.769,20.839 -32.746,38.701 -2.977,17.861 -10.916,33.739 -17.861,33.739 -6.946,0 -25.801,-21.831 -43.662,-21.831 -17.862,0 -23.817,2.976 -30.763,9.923 -6.945,6.946 -19.846,15.877 -26.792,0.992 -6.946,-14.884 -6.946,-25.8 -17.862,-26.793 -10.915,-0.992 -23.815,8.931 -33.738,19.847 -9.923,10.916 -29.77,26.792 -41.678,12.9 -11.907,-13.893 -10.915,-24.808 -11.907,-38.7 -0.993,-13.893 -14.885,-40.685 -34.731,-28.778 -19.847,11.908 -34.732,22.824 -35.724,51.601 -0.992,28.777 -4.961,109.155 -64.5,74.424 0,0 -37.708,-35.724 -12.901,-63.509 24.808,-27.785 88.813,-75.912 58.547,-106.177 -30.266,-30.266 -47.135,-14.389 -56.562,-4.962 -9.427,9.427 -9.427,22.327 -14.885,27.785 -5.458,5.457 -21.831,9.923 -29.769,-0.992 -7.939,-10.916 -4.962,-32.747 11.907,-36.716 16.87,-3.969 49.616,-22.823 45.647,-46.639 -3.969,-23.816 -5.954,-21.831 -24.808,-33.739 -18.854,-11.908 -36.715,-22.823 -36.715,-41.677 0,-18.854 4.961,-30.762 16.869,-40.685 11.907,-9.923 21.831,-17.862 19.846,-36.716 -1.985,-18.854 -11.908,-41.677 -20.839,-56.562 -8.93,-14.884 -11.907,-29.769 -8.93,-36.715 2.977,-6.947 11.908,-14.885 33.739,-17.863 21.831,-2.976 55.569,0 64.5,-19.845 8.931,-19.847 10.916,-36.716 -5.954,-49.617 -16.869,-12.9 -46.639,-45.646 -20.838,-76.408 25.8,-30.762 59.539,-12.9 63.508,-4.962 3.969,7.939 7.938,45.647 19.846,53.585 11.908,7.939 22.823,22.824 30.762,4.962 7.938,-17.861 0.992,-28.777 11.907,-37.708 10.916,-8.931 16.87,-11.908 31.755,-7.938 14.885,3.968 27.785,5.954 37.708,-10.915 9.923,-16.871 15.877,-22.824 24.808,-22.824 8.931,0 15.877,9.923 22.823,25.8 6.947,15.877 12.901,21.831 21.831,21.831 8.931,0 26.793,-7.938 29.77,-27.785 2.976,-19.846 -2.977,-65.493 13.892,-60.531 16.87,4.962 15.877,18.853 8.931,28.777 -6.946,9.923 -18.854,28.777 -12.9,46.639 5.954,17.861 11.907,31.754 27.785,29.769 15.877,-1.984 28.777,-4.962 33.738,-0.992 4.962,3.97 8.931,17.861 16.87,27.785 7.939,9.923 18.854,25.8 34.731,16.869 15.877,-8.93 27.785,-14.884 39.692,-36.715 11.908,-21.831 33.739,-52.593 60.531,-40.685 26.793,11.907 38.702,32.746 27.785,54.577 -10.915,21.831 -22.823,28.778 -44.654,33.738 -21.83,4.962 -41.678,12.901 -34.731,35.724 6.946,22.823 16.87,41.678 41.677,35.724 24.809,-5.954 38.701,-23.816 57.555,-17.863 18.855,5.955 39.693,12.901 39.693,36.716 0,23.817 -8.931,49.616 -31.754,51.601"
                 style="fill:#ffffff;fill-opacity:1;fill-rule:nonzero;stroke:none"
                 id="path46" /></g><g
               id="g48"
               transform="translate(58.942776,603.20808)"
               style="fill:#ffffff"><path
                 d="m 0,0 c 0,-6.071 -4.921,-10.993 -10.992,-10.993 -6.071,0 -10.992,4.922 -10.992,10.993 0,6.071 4.921,10.992 10.992,10.992 C -4.921,10.992 0,6.071 0,0"
                 style="fill:#ffffff;fill-opacity:1;fill-rule:nonzero;stroke:none"
                 id="path50" /></g><g
               id="g52"
               transform="translate(274.79188,701.47218)"
               style="fill:#ffffff"><path
                 d="m 0,0 c 0,-11.773 -9.545,-21.318 -21.319,-21.318 -11.773,0 -21.318,9.545 -21.318,21.318 0,11.774 9.545,21.319 21.318,21.319 C -9.545,21.319 0,11.774 0,0"
                 style="fill:#ffffff;fill-opacity:1;fill-rule:nonzero;stroke:none"
                 id="path54" /></g><g
               id="g56"
               transform="translate(76.930076,313.41118)"
               style="fill:#ffffff"><path
                 d="m 0,0 c 0,-6.808 -5.518,-12.325 -12.325,-12.325 -6.806,0 -12.324,5.517 -12.324,12.325 0,6.807 5.518,12.324 12.324,12.324 C -5.518,12.324 0,6.807 0,0"
                 style="fill:#ffffff;fill-opacity:1;fill-rule:nonzero;stroke:none"
                 id="path58" /></g><g
               id="g60"
               transform="translate(102.91198,212.48148)"
               style="fill:#ffffff"><path
                 d="m 0,0 c 0,0 5.996,-17.321 17.321,-17.321 11.325,0 20.653,9.327 20.653,20.652 0,11.325 -8.661,12.657 -13.325,12.657 C 19.986,15.988 0,11.325 0,0"
                 style="fill:#ffffff;fill-opacity:1;fill-rule:nonzero;stroke:none"
                 id="path62" /></g><g
               id="g64"
               transform="translate(658.52287,63.918979)"
               style="fill:#ffffff"><path
                 d="m 0,0 c 0,-9.198 -7.456,-16.655 -16.655,-16.655 -9.199,0 -16.655,7.457 -16.655,16.655 0,9.198 7.456,16.654 16.655,16.654 C -7.456,16.654 0,9.198 0,0"
                 style="fill:#ffffff;fill-opacity:1;fill-rule:nonzero;stroke:none"
                 id="path66" /></g><g
               id="g68"
               transform="translate(791.76307,409.67678)"
               style="fill:#ffffff"><path
                 d="m 0,0 c 0,-17.661 -14.316,-31.978 -31.978,-31.978 -17.661,0 -31.977,14.317 -31.977,31.978 0,17.661 14.316,31.978 31.977,31.978 C -14.316,31.978 0,17.661 0,0"
                 style="fill:#ffffff;fill-opacity:1;fill-rule:nonzero;stroke:none"
                 id="path70" /></g><g
               id="g72"
               transform="translate(316.96088,560.32818)"
               style="fill:#ffffff"><path
                 d="m 0,0 v 2.62 c 6.087,0.385 6.781,1.541 6.781,7.012 v 27.972 c 0,4.007 -0.308,4.546 -3.468,4.777 l -3.93,0.308 v 2.235 c 5.086,0.771 10.788,2.158 17.57,4.007 V 9.632 c 0,-5.317 0.539,-6.627 6.703,-7.012 V 0 Z"
                 style="fill:#ffffff;fill-opacity:1;fill-rule:nonzero;stroke:none"
                 id="path74" /></g><g
               id="g76"
               transform="translate(360.34168,584.60108)"
               style="fill:#ffffff"><path
                 d="m 0,0 c 0,-10.403 1.618,-22.038 6.704,-22.038 5.086,0 6.396,11.25 6.396,21.961 0,10.865 -1.619,21.576 -6.627,21.576 C 1.233,21.499 0,10.326 0,0 m 23.58,-0.231 c 0,-11.25 -4.084,-24.967 -17.03,-24.967 -12.946,0 -17.107,13.794 -17.107,24.89 0,11.404 4.392,24.966 17.107,24.966 12.946,0 17.03,-13.716 17.03,-24.889"
                 style="fill:#ffffff;fill-opacity:1;fill-rule:nonzero;stroke:none"
                 id="path78" /></g><g
               id="g80"
               transform="translate(398.86858,584.60108)"
               style="fill:#ffffff"><path
                 d="m 0,0 c 0,-10.403 1.618,-22.038 6.703,-22.038 5.086,0 6.397,11.25 6.397,21.961 0,10.865 -1.619,21.576 -6.627,21.576 C 1.232,21.499 0,10.326 0,0 m 23.579,-0.231 c 0,-11.25 -4.084,-24.967 -17.029,-24.967 -12.946,0 -17.107,13.794 -17.107,24.89 0,11.404 4.392,24.966 17.107,24.966 12.945,0 17.029,-13.716 17.029,-24.889"
                 style="fill:#ffffff;fill-opacity:1;fill-rule:nonzero;stroke:none"
                 id="path82" /></g><g
               id="g84"
               transform="translate(464.13327,573.04248)"
               style="fill:#ffffff"><path
                 d="m 0,0 c 0,-3.776 0.848,-10.865 4.546,-10.865 3.622,0 4.315,7.243 4.315,10.788 0,3.853 -0.693,10.634 -4.391,10.634 C 0.848,10.557 0,3.93 0,0 m 16.413,-0.154 c 0,-5.856 -3.391,-13.485 -11.943,-13.485 -8.4,0 -12.022,7.629 -12.022,13.408 0,5.933 3.622,13.562 12.022,13.562 8.398,0 11.943,-7.629 11.943,-13.485 m -41.071,-15.489 -2.852,2.081 31.517,50.935 2.851,-2.004 z m -4.084,38.529 c 0,-3.776 0.925,-10.865 4.546,-10.865 3.622,0 4.315,7.243 4.315,10.788 0,3.853 -0.616,10.634 -4.315,10.634 -3.621,0 -4.546,-6.935 -4.546,-10.557 m 16.413,-0.077 c 0,-5.856 -3.468,-13.562 -12.021,-13.562 -8.322,0 -11.944,7.706 -11.944,13.485 0,5.856 3.622,13.485 11.944,13.485 8.399,0 12.021,-7.629 12.021,-13.408"
                 style="fill:#ffffff;fill-opacity:1;fill-rule:nonzero;stroke:none"
                 id="path86" /></g><g
               id="g88"
               transform="translate(272.59218,558.33498)"
               style="fill:#ffffff"><path
                 d="M 0,0 H 11.492 L 32.316,-36.579 V 0 H 42.531 V -52.46 H 31.571 L 10.214,-15.238 V -52.46 H 0 Z"
                 style="fill:#ffffff;fill-opacity:1;fill-rule:nonzero;stroke:none"
                 id="path90" /></g><g
               id="g92"
               transform="translate(346.15718,524.73738)"
               style="fill:#ffffff"><path
                 d="m 0,0 c -0.649,-0.404 -1.305,-0.729 -1.966,-0.979 -0.662,-0.249 -1.57,-0.48 -2.724,-0.694 L -6.999,-2.1 c -2.165,-0.379 -3.719,-0.842 -4.663,-1.388 -1.597,-0.925 -2.396,-2.361 -2.396,-4.306 0,-1.732 0.488,-2.984 1.464,-3.755 0.975,-0.771 2.162,-1.157 3.56,-1.157 2.216,0 4.258,0.641 6.125,1.922 1.867,1.282 2.837,3.618 2.909,7.012 z m -6.202,4.734 c 1.888,0.237 3.238,0.534 4.051,0.89 1.458,0.616 2.187,1.577 2.187,2.882 0,1.59 -0.559,2.687 -1.678,3.292 -1.118,0.605 -2.759,0.908 -4.924,0.908 -2.429,0 -4.149,-0.593 -5.159,-1.78 -0.722,-0.878 -1.203,-2.064 -1.443,-3.559 h -9.787 c 0.214,3.393 1.167,6.181 2.859,8.364 2.693,3.417 7.316,5.125 13.869,5.125 4.266,0 8.054,-0.842 11.367,-2.527 3.312,-1.685 4.968,-4.864 4.968,-9.538 V -9.004 c 0,-1.234 0.024,-2.729 0.071,-4.485 0.071,-1.329 0.273,-2.23 0.606,-2.704 0.331,-0.475 0.83,-0.867 1.494,-1.175 v -1.495 H 1.246 c -0.309,0.783 -0.522,1.518 -0.641,2.207 -0.118,0.688 -0.213,1.471 -0.284,2.349 -1.408,-1.519 -3.031,-2.812 -4.869,-3.88 -2.195,-1.257 -4.678,-1.886 -7.446,-1.886 -3.532,0 -6.45,1.003 -8.753,3.008 -2.303,2.004 -3.454,4.845 -3.454,8.523 0,4.77 1.852,8.222 5.557,10.357 2.032,1.163 5.02,1.993 8.964,2.492 z"
                 style="fill:#ffffff;fill-opacity:1;fill-rule:nonzero;stroke:none"
                 id="path94" /></g><g
               id="g96"
               transform="translate(361.14158,537.08748)"
               style="fill:#ffffff"><path
                 d="M 0,0 V 7.225 H 5.41 V 18.044 H 15.446 V 7.225 h 6.3 V 0 h -6.3 v -20.5 c 0,-1.59 0.201,-2.581 0.605,-2.972 0.403,-0.391 1.637,-0.587 3.701,-0.587 0.309,0 0.635,0.005 0.979,0.017 0.344,0.012 0.682,0.03 1.015,0.054 v -7.581 l -4.805,-0.178 c -4.793,-0.166 -8.067,0.664 -9.823,2.492 -1.139,1.162 -1.708,2.954 -1.708,5.374 L 5.41,0 Z"
                 style="fill:#ffffff;fill-opacity:1;fill-rule:nonzero;stroke:none"
                 id="path98" /></g><g
               id="g100"
               transform="translate(399.50728,544.66798)"
               style="fill:#ffffff"><path
                 d="m 0,0 v -23.383 c 0,-2.206 0.26,-3.867 0.779,-4.982 0.921,-1.97 2.727,-2.954 5.418,-2.954 3.448,0 5.809,1.399 7.083,4.199 0.661,1.518 0.992,3.524 0.992,6.015 V 0 h 10.286 v -38.793 h -9.859 v 5.48 c -0.095,-0.119 -0.331,-0.475 -0.71,-1.067 -0.378,-0.594 -0.827,-1.116 -1.347,-1.566 -1.586,-1.424 -3.119,-2.397 -4.597,-2.919 -1.48,-0.521 -3.212,-0.782 -5.199,-0.782 -5.726,0 -9.583,2.064 -11.57,6.192 -1.112,2.278 -1.668,5.635 -1.668,10.072 V 0 Z"
                 style="fill:#ffffff;fill-opacity:1;fill-rule:nonzero;stroke:none"
                 id="path102" /></g><g
               id="g104"
               transform="translate(455.47308,545.57568)"
               style="fill:#ffffff"><path
                 d="m 0,0 c 0.131,-0.012 0.421,-0.03 0.872,-0.053 v -10.393 c -0.641,0.071 -1.21,0.119 -1.708,0.142 -0.498,0.024 -0.902,0.036 -1.21,0.036 -4.081,0 -6.822,-1.329 -8.222,-3.986 -0.783,-1.495 -1.174,-3.796 -1.174,-6.905 v -18.542 h -10.214 v 38.793 h 9.68 V -7.67 c 1.566,2.586 2.93,4.354 4.093,5.303 1.898,1.59 4.365,2.385 7.403,2.385 C -0.29,0.018 -0.13,0.012 0,0"
                 style="fill:#ffffff;fill-opacity:1;fill-rule:nonzero;stroke:none"
                 id="path106" /></g><g
               id="g108"
               transform="translate(483.85688,524.73738)"
               style="fill:#ffffff"><path
                 d="M 0,0 C -0.649,-0.404 -1.305,-0.729 -1.967,-0.979 -2.628,-1.228 -3.536,-1.459 -4.69,-1.673 L -6.999,-2.1 c -2.164,-0.379 -3.719,-0.842 -4.662,-1.388 -1.598,-0.925 -2.397,-2.361 -2.397,-4.306 0,-1.732 0.488,-2.984 1.464,-3.755 0.976,-0.771 2.162,-1.157 3.56,-1.157 2.217,0 4.258,0.641 6.125,1.922 1.867,1.282 2.837,3.618 2.909,7.012 z m -6.202,4.734 c 1.888,0.237 3.238,0.534 4.051,0.89 1.458,0.616 2.187,1.577 2.187,2.882 0,1.59 -0.559,2.687 -1.678,3.292 -1.118,0.605 -2.759,0.908 -4.923,0.908 -2.43,0 -4.15,-0.593 -5.16,-1.78 -0.721,-0.878 -1.203,-2.064 -1.443,-3.559 h -9.787 c 0.214,3.393 1.167,6.181 2.859,8.364 2.693,3.417 7.316,5.125 13.869,5.125 4.266,0 8.054,-0.842 11.367,-2.527 3.312,-1.685 4.968,-4.864 4.968,-9.538 V -9.004 c 0,-1.234 0.024,-2.729 0.072,-4.485 0.071,-1.329 0.272,-2.23 0.604,-2.704 0.332,-0.475 0.83,-0.867 1.495,-1.175 v -1.495 H 1.246 c -0.309,0.783 -0.522,1.518 -0.641,2.207 -0.119,0.688 -0.213,1.471 -0.284,2.349 -1.408,-1.519 -3.031,-2.812 -4.869,-3.88 -2.195,-1.257 -4.678,-1.886 -7.446,-1.886 -3.532,0 -6.449,1.003 -8.752,3.008 -2.304,2.004 -3.455,4.845 -3.455,8.523 0,4.77 1.852,8.222 5.557,10.357 2.032,1.163 5.02,1.993 8.964,2.492 z"
                 style="fill:#ffffff;fill-opacity:1;fill-rule:nonzero;stroke:none"
                 id="path110" /></g><path
               d="m 513.18418,505.87428 h -10.144 v 52.46 h 10.144 z"
               style="fill:#ffffff;fill-opacity:1;fill-rule:nonzero;stroke:none;stroke-width:0.999998"
               id="path112" /><g
               id="g114"
               transform="translate(194.50767,376.39358)"
               style="fill:#ed1c24;fill-opacity:1"><path
                 d="M 0,0 C 1.684,10.452 3.105,22.221 3.39,35.325 3.538,42.169 3.231,54.849 -2.302,54.97 -7.836,55.09 -14.727,39.652 -15.15,20.141 -15.504,3.833 -7.591,-0.71 -2.786,-0.814 -2.057,-0.83 -1.026,-0.27 0,0 m 14.529,18.332 c 0.636,2.461 15.078,50.366 29.057,50.063 3.349,-0.072 11.487,-0.978 11.342,-7.675 -0.142,-6.553 -5.083,-39.514 -5.418,-48.248 0.548,5.087 10.663,34.877 21.438,34.643 6.116,-0.133 11.146,-3.301 11.057,-7.379 -0.088,-4.076 -5.506,-18.817 -5.963,-39.786 -0.455,-20.967 2.34,-53.222 7.729,-53.34 5.242,-0.113 6.495,17.34 7.98,18.62 0.148,0.142 0.148,0.142 0.293,0.139 1.02,-0.022 1.792,-4.701 1.668,-10.38 -0.176,-8.154 -2.141,-18.163 -7.529,-18.046 -24.753,0.537 -27.654,34.69 -26.961,66.578 0.445,20.531 3.99,29.486 4.028,31.233 0.003,0.145 0.006,0.291 -0.139,0.294 -2.912,0.064 -15.254,-38.273 -15.566,-52.689 -0.117,-5.386 0.811,-9.631 0.716,-14 -0.035,-1.601 -1.216,-2.303 -2.818,-2.27 -2.766,0.06 -6.944,2.19 -10.078,5.464 -2.707,2.826 -3.552,10.857 -3.331,21.05 0.484,22.278 5.842,54.356 6.038,63.384 0.035,1.602 -0.092,2.478 -0.383,2.485 C 32.593,58.583 8.673,-9.804 8.006,-40.527 l -0.031,-1.456 c -0.111,-5.097 -0.159,-7.281 -3.071,-7.218 -3.203,0.07 -13.434,5.245 -13.355,8.885 0.089,4.078 4.149,16.663 7.457,34.801 -0.586,-0.132 -1.168,-0.12 -1.896,-0.104 -13.833,0.3 -24.032,13.633 -23.669,30.378 0.576,26.501 15.5,36.228 24.383,36.035 8.445,-0.183 17.539,-4.023 16.705,-42.462"
                 style="fill:#ed1c24;fill-opacity:1;fill-rule:nonzero;stroke:none"
                 id="path116" /></g><g
               id="g118"
               transform="translate(290.26357,427.91848)"
               style="fill:#ed1c24;fill-opacity:1"><path
                 d="m 0,0 c 1.667,1.826 5.957,3.628 8.139,3.727 5.092,0.234 8.182,-3.56 8.396,-8.215 0.041,-0.873 -0.363,-1.62 -0.779,-2.077 C 13.674,-8.847 13.395,-18.628 6.994,-18.923 4.229,-19.05 -1.771,-15.39 -2.092,-8.406 -2.313,-3.606 -1.665,-1.826 0,0 m 11.983,-102.086 c -2.328,-0.108 -8.136,2.541 -12.397,6.427 -3.5,3.194 -5.364,15.208 -5.932,27.574 -0.655,14.257 0.415,29.031 2.504,31.169 0.978,0.92 2.413,1.422 3.867,1.49 2.765,0.127 6.171,-1.028 8.301,-2.972 1.37,-1.249 2.178,-2.961 2.312,-5.871 0.092,-2.037 -0.899,-2.666 -0.899,-2.666 0,0 -1.537,-20.482 -0.928,-33.72 0.294,-6.401 1.097,-11.176 2.842,-11.096 8.293,0.381 9.786,15.468 10.26,21.029 -0.02,0.436 0.548,0.756 1.275,0.789 1.602,0.072 4.273,-0.972 4.354,-2.717 0.086,-1.892 0.023,-6.852 -1.33,-12.308 -2.211,-8.994 -7.973,-16.84 -14.229,-17.128"
                 style="fill:#ed1c24;fill-opacity:1;fill-rule:nonzero;stroke:none"
                 id="path120" /></g><g
               id="g122"
               transform="translate(325.56678,332.39748)"
               style="fill:#ed1c24;fill-opacity:1"><path
                 d="m 0,0 c -4.82,3.525 -8.604,20.33 -11.104,36.447 -3.837,24.754 -5.018,59.94 -2.077,63.786 1.094,1.496 2.445,2.295 4.027,2.54 C -4.26,103.532 1.89,99.032 2.247,96.729 2.715,93.708 -3.273,72.442 4.09,24.95 6.834,7.248 11.388,5.448 13.258,5.739 c 3.454,0.536 6.94,12.277 6.715,24.178 -0.067,0.433 0.464,0.809 1.184,0.921 1.583,0.246 4.352,-0.503 4.62,-2.232 C 26.58,23.425 27.475,-3.257 15.53,-5.11 10.637,-5.869 4.843,-3.672 0,0"
                 style="fill:#ed1c24;fill-opacity:1;fill-rule:nonzero;stroke:none"
                 id="path124" /></g><g
               id="g126"
               transform="translate(364.80707,372.80378)"
               style="fill:#ed1c24;fill-opacity:1"><path
                 d="m 0,0 c -1.453,-0.183 -2.763,-0.332 -3.855,-0.133 0.591,-3.898 1.356,-7.906 2.296,-12.024 5.605,-24.567 10.454,-24.206 11.166,-27.33 0.324,-1.42 -0.934,-2.455 -3.064,-2.942 -6.532,-1.49 -15.68,-1.336 -18.856,12.58 -5.507,24.141 -11.998,74.199 -4.249,86.723 2.159,3.629 7.154,5.964 11.697,7.001 4.971,1.135 9.697,0.719 10.118,-1.128 0.486,-2.13 -2.317,-0.976 -4.947,-5.162 -3.146,-5.2 -7.905,-26.9 -4.621,-54.388 0.933,2.455 4.398,4.291 7.381,4.972 4.991,5.622 9.502,15.315 7.267,25.112 -0.325,1.42 -0.726,2.524 -0.887,3.235 -0.26,1.135 -0.041,1.483 1.805,1.905 4.544,1.037 11.647,-0.629 12.813,-5.741 1.847,-8.094 -2.628,-21.216 -12.242,-28.19 9.64,-8.854 18.215,-24.825 25.03,-23.271 6.531,1.49 9.029,9.531 7.917,18.987 -0.181,1.452 0.257,2.15 1.108,2.345 1.561,0.354 4.178,-1.288 4.827,-4.129 l 0.13,-0.567 C 52.771,-17.837 48.597,-36.865 38.516,-39.166 19.771,-43.442 10.67,-6.827 0,0"
                 style="fill:#ed1c24;fill-opacity:1;fill-rule:nonzero;stroke:none"
                 id="path128" /></g><g
               id="g130"
               transform="translate(443.46918,349.24418)"
               style="fill:#ed1c24;fill-opacity:1"><path
                 d="m 0,0 c -5.003,3.451 -14.247,14.942 -16.761,39.428 -2.513,24.487 4.83,46.156 12.847,54.635 5.547,5.9 18.933,10.009 30.025,11.148 7.035,0.722 13.234,0.265 15.891,-1.65 6.927,-4.894 14.47,-11.776 16.163,-28.28 2.096,-20.428 -12.528,-47.084 -27.68,-48.638 -7.305,-0.75 -13.026,3.037 -13.303,5.743 -0.098,0.947 0.159,1.11 0.836,1.179 0.541,0.056 1.367,0.004 2.313,0.101 C 31.964,34.86 39.819,58.223 37.849,77.434 36.683,88.797 30.458,98.821 22.476,98.001 4.214,96.127 -3.522,58.286 -1.44,37.993 -0.385,27.711 6.784,-2.175 27.483,-0.05 c 13.934,1.431 21.293,17.632 21.099,19.527 -0.041,0.406 0.065,0.691 0.472,0.733 1.082,0.109 3.469,-1.832 3.955,-6.567 C 53.412,9.72 50.814,-6.269 28.764,-8.531 18.752,-9.559 5.016,-3.587 0,0"
                 style="fill:#ed1c24;fill-opacity:1;fill-rule:nonzero;stroke:none"
                 id="path132" /></g><g
               id="g134"
               transform="translate(549.97698,420.23638)"
               style="fill:#ed1c24;fill-opacity:1"><path
                 d="m 0,0 c -0.316,-4.204 -3.09,-4.814 -3.65,-12.273 -0.695,-9.222 1.425,-17.292 6.715,-17.691 3.663,-0.275 6.409,3.61 7.359,3.538 0.27,-0.019 0.376,-0.437 0.315,-1.251 -0.164,-2.17 -4.817,-7.821 -11.191,-7.342 -3.119,0.236 -7.7,0.989 -12.716,6.822 -3.388,3.937 -4.952,10.329 -5.474,16.096 -6.281,-10.984 -10.476,-28.671 -11.179,-38.029 l -0.137,0.01 c -0.134,-7.219 0.329,-15.573 0.217,-17.066 -0.143,-1.898 -3.686,-3.678 -6.806,-3.443 -2.983,0.224 -8.77,4.888 -10.661,6.94 -0.377,0.437 -0.441,1.396 -0.329,2.889 0.408,5.424 3.547,18.146 5.078,38.489 0.775,10.307 -3.757,13.513 -3.543,16.361 0.112,1.492 4.174,4.732 8.786,4.386 4.204,-0.317 11.326,-5.353 11.176,-14.617 2.441,5.273 5.18,9.021 7.417,11.58 0.479,6.375 7.137,11.466 12.019,11.099 C -1.586,6.12 0.307,4.068 0,0"
                 style="fill:#ed1c24;fill-opacity:1;fill-rule:nonzero;stroke:none"
                 id="path136" /></g><g
               id="g138"
               transform="translate(584.25727,407.05768)"
               style="fill:#ed1c24;fill-opacity:1"><path
                 d="M 0,0 C 7.75,7.692 14.483,16.17 17.229,25.735 7.879,26.544 -2.787,25.161 -3.978,13.389 -4.429,8.924 -2.822,4.524 0,0 m -15.718,-58.147 c 9.202,-0.931 24.707,7.755 25.992,20.475 0.534,5.277 -2.424,11.18 -6.614,17.071 L 1.235,-22.953 C -11.011,-34.564 -21.766,-44.96 -22.3,-50.236 c -0.505,-5.007 2.388,-7.488 6.582,-7.911 M 35.588,20.736 C 34.644,11.4 23.249,-1.255 10.936,-13.543 19.803,-23.188 29.401,-32.36 28.608,-40.208 26.529,-60.777 -2.171,-71.545 -18.545,-69.89 c -7.713,0.779 -10.424,9.118 -13.464,12.842 -3.042,3.724 -5.737,13.567 -5.354,17.355 0.983,9.743 15.853,20.27 30.118,32.907 -6.178,7.87 -11.393,15.778 -10.653,23.085 0.764,7.578 6.514,18.479 36.31,15.742 l 0.163,1.624 c 0.111,1.082 0.571,1.581 3.007,1.335 5.684,-0.573 14.483,-9.527 14.006,-14.264"
                 style="fill:#ed1c24;fill-opacity:1;fill-rule:nonzero;stroke:none"
                 id="path140" /></g><g
               id="g142"
               transform="translate(271.38127,223.69728)"
               style="fill:#ffffff"><path
                 d="m 0,0 c 1.301,1.883 1.953,4.358 1.953,7.426 0,2.455 -0.321,4.486 -0.96,6.094 -1.217,3.046 -3.456,4.57 -6.721,4.57 -3.306,0 -5.579,-1.491 -6.816,-4.475 -0.64,-1.587 -0.96,-3.639 -0.96,-6.157 0,-2.963 0.661,-5.417 1.984,-7.363 1.323,-1.948 3.339,-2.92 6.048,-2.92 2.347,0 4.171,0.941 5.472,2.825 m 7.561,21.074 c 2.587,-3.28 3.881,-7.511 3.881,-12.695 0,-5.375 -1.276,-9.829 -3.828,-13.362 -2.552,-3.535 -6.114,-5.3 -10.687,-5.3 -2.871,0 -5.179,0.57 -6.922,1.713 -1.043,0.677 -2.17,1.862 -3.382,3.554 v -4.347 h -8.918 v 46.718 h 9.045 v -16.63 c 1.149,1.607 2.417,2.835 3.801,3.681 1.639,1.058 3.727,1.587 6.261,1.587 4.578,0 8.161,-1.639 10.749,-4.919"
                 style="fill:#ffffff;fill-opacity:1;fill-rule:nonzero;stroke:none"
                 id="path144" /></g><g
               id="g146"
               transform="translate(308.34078,231.15528)"
               style="fill:#ffffff"><path
                 d="m 0,0 c -0.579,-0.36 -1.164,-0.65 -1.753,-0.873 -0.591,-0.222 -1.4,-0.429 -2.43,-0.618 l -2.059,-0.381 c -1.929,-0.339 -3.316,-0.752 -4.157,-1.238 -1.425,-0.826 -2.137,-2.106 -2.137,-3.84 0,-1.545 0.435,-2.661 1.305,-3.349 0.87,-0.688 1.928,-1.032 3.174,-1.032 1.977,0 3.798,0.572 5.463,1.715 1.665,1.142 2.53,3.225 2.594,6.252 z m -5.531,4.222 c 1.684,0.211 2.888,0.475 3.613,0.793 1.3,0.549 1.95,1.407 1.95,2.57 0,1.418 -0.499,2.396 -1.496,2.936 -0.997,0.54 -2.461,0.81 -4.391,0.81 -2.166,0 -3.7,-0.529 -4.601,-1.588 -0.644,-0.782 -1.072,-1.84 -1.287,-3.174 h -8.728 c 0.191,3.027 1.041,5.512 2.55,7.459 2.401,3.047 6.524,4.571 12.368,4.571 3.804,0 7.182,-0.751 10.136,-2.254 2.954,-1.502 4.431,-4.337 4.431,-8.506 V -8.03 c 0,-1.1 0.021,-2.433 0.064,-3.998 0.063,-1.186 0.243,-1.99 0.539,-2.412 0.296,-0.424 0.74,-0.774 1.333,-1.048 v -1.333 H 1.111 c -0.275,0.698 -0.465,1.353 -0.571,1.967 -0.106,0.614 -0.19,1.312 -0.254,2.095 -1.256,-1.354 -2.703,-2.508 -4.342,-3.459 -1.957,-1.122 -4.171,-1.682 -6.64,-1.682 -3.15,0 -5.751,0.894 -7.805,2.681 -2.054,1.788 -3.081,4.322 -3.081,7.602 0,4.253 1.652,7.331 4.956,9.235 1.812,1.037 4.477,1.778 7.994,2.223 z"
                 style="fill:#ffffff;fill-opacity:1;fill-rule:nonzero;stroke:none"
                 id="path148" /></g><g
               id="g150"
               transform="translate(332.27188,225.37898)"
               style="fill:#ffffff"><path
                 d="m 0,0 c 0.191,-1.608 0.606,-2.751 1.244,-3.428 1.127,-1.206 3.21,-1.808 6.25,-1.808 1.786,0 3.205,0.263 4.257,0.793 1.053,0.528 1.579,1.322 1.579,2.38 0,1.016 -0.424,1.788 -1.271,2.317 -0.849,0.528 -4.003,1.438 -9.463,2.729 -3.931,0.973 -6.701,2.191 -8.309,3.65 -1.608,1.439 -2.412,3.513 -2.412,6.221 0,3.195 1.256,5.94 3.769,8.236 2.513,2.296 6.048,3.443 10.607,3.443 4.326,0 7.851,-0.862 10.576,-2.586 2.724,-1.724 4.288,-4.703 4.692,-8.934 h -9.046 c -0.127,1.163 -0.456,2.084 -0.986,2.76 -0.998,1.228 -2.695,1.842 -5.093,1.842 -1.973,0 -3.378,-0.307 -4.216,-0.921 C 1.339,16.08 0.92,15.361 0.92,14.536 c 0,-1.037 0.446,-1.788 1.337,-2.253 0.891,-0.487 4.039,-1.323 9.445,-2.508 3.603,-0.846 6.304,-2.127 8.103,-3.839 1.777,-1.736 2.666,-3.905 2.666,-6.507 0,-3.428 -1.278,-6.227 -3.833,-8.395 -2.555,-2.169 -6.503,-3.253 -11.846,-3.253 -5.449,0 -9.471,1.148 -12.068,3.444 -2.598,2.295 -3.896,5.22 -3.896,8.775 z"
                 style="fill:#ffffff;fill-opacity:1;fill-rule:nonzero;stroke:none"
                 id="path152" /></g><g
               id="g154"
               transform="translate(370.41887,240.41408)"
               style="fill:#ffffff"><path
                 d="m 0,0 c -1.278,-1.317 -2.082,-3.103 -2.41,-5.355 h 15.584 c -0.165,2.401 -0.967,4.223 -2.41,5.466 C 9.322,1.354 7.534,1.977 5.399,1.977 3.078,1.977 1.278,1.317 0,0 m 13.532,7.813 c 2.413,-1.081 4.406,-2.786 5.978,-5.117 1.417,-2.055 2.336,-4.439 2.756,-7.152 0.244,-1.589 0.343,-3.878 0.298,-6.866 H -2.632 c 0.14,-3.47 1.346,-5.903 3.618,-7.299 1.382,-0.868 3.044,-1.302 4.987,-1.302 2.061,0 3.735,0.528 5.023,1.587 0.702,0.571 1.323,1.365 1.861,2.381 h 9.235 c -0.243,-2.053 -1.361,-4.138 -3.353,-6.253 -3.099,-3.364 -7.437,-5.046 -13.015,-5.046 -4.604,0 -8.666,1.418 -12.186,4.256 -3.519,2.838 -5.279,7.454 -5.279,13.851 0,5.992 1.589,10.587 4.766,13.785 3.177,3.198 7.301,4.798 12.371,4.798 3.011,0 5.723,-0.541 8.136,-1.623"
                 style="fill:#ffffff;fill-opacity:1;fill-rule:nonzero;stroke:none"
                 id="path156" /></g><g
               id="g158"
               transform="translate(440.72108,248.80178)"
               style="fill:#ffffff"><path
                 d="M 0,0 C 1.481,-0.593 2.825,-1.63 4.031,-3.11 5.004,-4.316 5.66,-5.798 5.999,-7.554 6.21,-8.718 6.316,-10.421 6.316,-12.663 L 6.253,-34.468 h -9.268 v 22.027 c 0,1.311 -0.212,2.39 -0.634,3.237 -0.805,1.607 -2.286,2.412 -4.444,2.412 -2.497,0 -4.221,-1.037 -5.173,-3.11 -0.487,-1.101 -0.73,-2.423 -0.73,-3.968 v -20.598 h -9.109 v 20.598 c 0,2.053 -0.211,3.544 -0.635,4.475 -0.762,1.671 -2.253,2.507 -4.475,2.507 -2.582,0 -4.316,-0.836 -5.205,-2.507 -0.487,-0.952 -0.73,-2.37 -0.73,-4.252 v -20.821 h -9.172 V 0.063 h 8.791 v -5.046 c 1.122,1.798 2.179,3.079 3.174,3.84 1.756,1.354 4.031,2.032 6.824,2.032 2.644,0 4.781,-0.582 6.411,-1.745 1.311,-1.081 2.306,-2.466 2.983,-4.159 1.185,2.032 2.656,3.524 4.412,4.475 1.862,0.953 3.936,1.429 6.221,1.429 C -2.982,0.889 -1.48,0.592 0,0"
                 style="fill:#ffffff;fill-opacity:1;fill-rule:nonzero;stroke:none"
                 id="path160" /></g><g
               id="g162"
               transform="translate(464.36367,240.41408)"
               style="fill:#ffffff"><path
                 d="M 0,0 C -1.278,-1.317 -2.081,-3.103 -2.41,-5.355 H 13.174 C 13.009,-2.954 12.206,-1.132 10.765,0.111 9.322,1.354 7.534,1.977 5.399,1.977 3.077,1.977 1.278,1.317 0,0 m 13.532,7.813 c 2.413,-1.081 4.406,-2.786 5.978,-5.117 1.417,-2.055 2.336,-4.439 2.757,-7.152 0.243,-1.589 0.342,-3.878 0.297,-6.866 H -2.632 c 0.141,-3.47 1.347,-5.903 3.617,-7.299 1.382,-0.868 3.044,-1.302 4.989,-1.302 2.06,0 3.734,0.528 5.022,1.587 0.702,0.571 1.323,1.365 1.861,2.381 h 9.235 c -0.243,-2.053 -1.361,-4.138 -3.353,-6.253 -3.099,-3.364 -7.437,-5.046 -13.015,-5.046 -4.604,0 -8.666,1.418 -12.186,4.256 -3.519,2.838 -5.278,7.454 -5.278,13.851 0,5.992 1.588,10.587 4.765,13.785 3.177,3.198 7.301,4.798 12.371,4.798 3.01,0 5.723,-0.541 8.136,-1.623"
                 style="fill:#ffffff;fill-opacity:1;fill-rule:nonzero;stroke:none"
                 id="path164" /></g><g
               id="g166"
               transform="translate(519.39888,246.94538)"
               style="fill:#ffffff"><path
                 d="m 0,0 c 2.266,-1.873 3.398,-4.979 3.398,-9.315 v -23.296 h -9.267 v 21.043 c 0,1.819 -0.242,3.215 -0.725,4.189 -0.883,1.777 -2.563,2.666 -5.041,2.666 -3.046,0 -5.136,-1.302 -6.27,-3.904 -0.588,-1.376 -0.882,-3.132 -0.882,-5.269 v -18.725 h -9.045 V 1.92 h 8.76 v -5.047 c 1.158,1.777 2.254,3.058 3.286,3.841 1.853,1.396 4.204,2.095 7.048,2.095 C -5.178,2.809 -2.265,1.872 0,0"
                 style="fill:#ffffff;fill-opacity:1;fill-rule:nonzero;stroke:none"
                 id="path168" /></g><g
               id="g170"
               transform="translate(527.65278,242.16798)"
               style="fill:#ffffff"><path
                 d="m 0,0 v 6.443 h 4.824 v 9.649 h 8.951 V 6.443 h 5.618 V 0 h -5.618 v -18.281 c 0,-1.417 0.179,-2.301 0.539,-2.65 0.36,-0.349 1.46,-0.524 3.301,-0.524 0.275,0 0.566,0.006 0.873,0.017 0.307,0.009 0.608,0.026 0.905,0.047 v -6.76 l -4.286,-0.16 c -4.273,-0.147 -7.193,0.593 -8.759,2.223 -1.016,1.036 -1.524,2.634 -1.524,4.792 L 4.824,0 Z"
                 style="fill:#ffffff;fill-opacity:1;fill-rule:nonzero;stroke:none"
                 id="path172" /></g><g
               id="g174"
               transform="translate(335.96968,206.54498)"
               style="fill:#ffffff"><path
                 d="m 0,0 c 0.465,-0.032 1.1,-0.08 1.904,-0.143 v -7.363 c -0.508,0.063 -1.36,0.11 -2.554,0.143 -1.196,0.031 -2.021,-0.234 -2.476,-0.794 -0.456,-0.561 -0.683,-1.18 -0.683,-1.857 v -2.92 h 5.935 v -6.378 h -5.935 v -27.899 h -8.982 v 27.899 h -5.078 v 6.378 h 4.952 v 2.222 c 0,3.702 0.624,6.253 1.872,7.649 1.312,2.074 4.475,3.11 9.49,3.11 C -0.984,0.047 -0.466,0.031 0,0"
                 style="fill:#ffffff;fill-opacity:1;fill-rule:nonzero;stroke:none"
                 id="path176" /></g><g
               id="g178"
               transform="translate(362.51848,194.73828)"
               style="fill:#ffffff"><path
                 d="m 0,0 c 0.116,-0.011 0.375,-0.027 0.778,-0.048 v -9.267 c -0.571,0.063 -1.079,0.105 -1.524,0.127 -0.444,0.02 -0.804,0.032 -1.079,0.032 -3.639,0 -6.083,-1.186 -7.331,-3.555 -0.698,-1.334 -1.048,-3.386 -1.048,-6.158 v -16.535 h -9.108 V -0.81 h 8.632 v -6.03 c 1.397,2.306 2.613,3.883 3.65,4.729 1.693,1.418 3.893,2.127 6.602,2.127 C -0.259,0.016 -0.116,0.01 0,0"
                 style="fill:#ffffff;fill-opacity:1;fill-rule:nonzero;stroke:none"
                 id="path180" /></g><g
               id="g182"
               transform="translate(377.60788,185.41408)"
               style="fill:#ffffff"><path
                 d="m 0,0 c -1.278,-1.317 -2.082,-3.103 -2.41,-5.355 h 15.584 c -0.165,2.401 -0.967,4.223 -2.41,5.466 C 9.322,1.354 7.534,1.977 5.399,1.977 3.078,1.977 1.278,1.317 0,0 m 13.532,7.813 c 2.413,-1.081 4.406,-2.786 5.978,-5.117 1.417,-2.055 2.336,-4.439 2.757,-7.152 0.243,-1.589 0.342,-3.878 0.297,-6.866 H -2.632 c 0.14,-3.47 1.346,-5.903 3.618,-7.299 1.382,-0.868 3.044,-1.302 4.987,-1.302 2.061,0 3.735,0.528 5.023,1.587 0.702,0.571 1.323,1.365 1.861,2.381 h 9.235 c -0.243,-2.053 -1.362,-4.138 -3.353,-6.253 -3.099,-3.364 -7.437,-5.046 -13.015,-5.046 -4.604,0 -8.666,1.418 -12.186,4.256 -3.519,2.838 -5.279,7.454 -5.279,13.851 0,5.992 1.589,10.587 4.766,13.785 3.177,3.198 7.301,4.798 12.371,4.798 3.011,0 5.723,-0.541 8.136,-1.623"
                 style="fill:#ffffff;fill-opacity:1;fill-rule:nonzero;stroke:none"
                 id="path184" /></g><g
               id="g186"
               transform="translate(411.76118,170.37898)"
               style="fill:#ffffff"><path
                 d="m 0,0 c 0.191,-1.608 0.606,-2.751 1.244,-3.428 1.126,-1.206 3.21,-1.808 6.25,-1.808 1.786,0 3.205,0.263 4.258,0.793 1.052,0.528 1.578,1.322 1.578,2.38 0,1.016 -0.424,1.788 -1.271,2.317 -0.848,0.528 -4.003,1.438 -9.463,2.729 -3.932,0.973 -6.701,2.191 -8.309,3.65 -1.608,1.439 -2.412,3.513 -2.412,6.221 0,3.195 1.256,5.94 3.769,8.236 2.512,2.296 6.048,3.443 10.607,3.443 4.326,0 7.852,-0.862 10.576,-2.586 2.725,-1.724 4.288,-4.703 4.692,-8.934 h -9.045 c -0.128,1.163 -0.457,2.084 -0.988,2.76 -0.997,1.228 -2.694,1.842 -5.091,1.842 -1.974,0 -3.379,-0.307 -4.217,-0.921 C 1.34,16.08 0.921,15.361 0.921,14.536 c 0,-1.037 0.445,-1.788 1.337,-2.253 0.89,-0.487 4.038,-1.323 9.443,-2.508 3.604,-0.846 6.305,-2.127 8.104,-3.839 1.777,-1.736 2.666,-3.905 2.666,-6.507 0,-3.428 -1.278,-6.227 -3.832,-8.395 -2.556,-2.169 -6.504,-3.253 -11.846,-3.253 -5.449,0 -9.473,1.148 -12.069,3.444 -2.598,2.295 -3.897,5.22 -3.897,8.775 z"
                 style="fill:#ffffff;fill-opacity:1;fill-rule:nonzero;stroke:none"
                 id="path188" /></g><g
               id="g190"
               transform="translate(465.75918,193.73738)"
               style="fill:#ffffff"><path
                 d="m 0,0 c 1.737,-0.741 3.165,-1.875 4.282,-3.399 0.947,-1.292 1.527,-2.622 1.738,-3.987 0.21,-1.366 0.316,-3.595 0.316,-6.686 V -34.403 H -2.9 v 21.066 c 0,1.864 -0.315,3.368 -0.945,4.512 -0.819,1.609 -2.374,2.415 -4.663,2.415 -2.373,0 -4.175,-0.8 -5.403,-2.4 -1.229,-1.598 -1.843,-3.88 -1.843,-6.846 v -18.747 h -9.045 V 12.22 h 9.045 V -4.284 c 1.307,2.011 2.817,3.412 4.534,4.206 1.717,0.793 3.524,1.19 5.42,1.19 2.128,0 4.062,-0.371 5.8,-1.112"
                 style="fill:#ffffff;fill-opacity:1;fill-rule:nonzero;stroke:none"
                 id="path192" /></g></g></g></g></g></g></svg>
